<svg width="1087" height="212" viewBox="0 0 1087 212" fill="none" xmlns="http://www.w3.org/2000/svg">
<path d="M146.878 148.56L212.209 111.859L224.344 70.713L146.878 114.228V148.56Z" fill="white"/>
<path d="M146.878 212L189.79 187.898L201.925 146.751L146.878 177.668V212Z" fill="white"/>
<path d="M32.8703 111.859L98.2057 148.56V114.228L20.7397 70.713L32.8703 111.859Z" fill="white"/>
<path d="M55.2934 187.898L98.2057 212V177.668L43.1587 146.751L55.2934 187.898Z" fill="white"/>
<path d="M0 0V30.0964L98.2057 85.2585V50.9305L61.1122 30.0964H183.967L146.878 50.9305V85.2585L245.084 30.0964V0H0Z" fill="#EA5445"/>
<path d="M530.724 29.9197H503.042C502.387 29.9197 501.856 30.4546 501.856 31.1143V180.057C501.856 180.717 502.387 181.252 503.042 181.252H530.724C531.379 181.252 531.91 180.717 531.91 180.057V31.1143C531.91 30.4546 531.379 29.9197 530.724 29.9197Z" fill="white"/>
<path d="M856.799 29.9029H794.367C791.815 29.9043 789.332 30.7353 787.287 32.2723C785.242 33.8094 783.745 35.9703 783.018 38.4334L744.792 167.863C744.76 167.972 744.745 168.085 744.746 168.199V180.061C744.746 180.217 744.776 180.371 744.835 180.515C744.893 180.659 744.98 180.79 745.089 180.9C745.198 181.01 745.327 181.097 745.47 181.157C745.613 181.217 745.766 181.247 745.92 181.247H771.343C771.596 181.249 771.842 181.168 772.046 181.016C772.249 180.864 772.398 180.65 772.47 180.406L780.875 151.824C780.949 151.58 781.099 151.366 781.302 151.214C781.506 151.063 781.753 150.982 782.007 150.983H869.055C869.308 150.982 869.555 151.063 869.758 151.215C869.961 151.366 870.11 151.58 870.183 151.824L878.588 180.406C878.661 180.65 878.81 180.863 879.013 181.014C879.217 181.166 879.463 181.248 879.715 181.247H905.138C905.45 181.247 905.75 181.122 905.971 180.9C906.192 180.678 906.316 180.376 906.316 180.061V168.199C906.315 168.087 906.3 167.975 906.27 167.867L868.166 38.425C867.437 35.96 865.937 33.7982 863.889 32.2623C861.84 30.7264 859.353 29.8987 856.799 29.9029ZM790.457 119.195L807.584 61.0425C807.658 60.7973 807.81 60.5829 808.015 60.4314C808.221 60.2798 808.469 60.1991 808.724 60.2013H842.338C842.593 60.1991 842.841 60.2798 843.047 60.4314C843.252 60.5829 843.404 60.7973 843.478 61.0425L860.605 119.195C860.649 119.344 860.664 119.501 860.648 119.656C860.632 119.811 860.585 119.961 860.512 120.097C860.438 120.234 860.338 120.355 860.218 120.453C860.098 120.551 859.959 120.624 859.811 120.668C859.703 120.702 859.59 120.717 859.477 120.714H791.602C791.447 120.716 791.294 120.688 791.15 120.63C791.007 120.572 790.876 120.487 790.766 120.378C790.655 120.269 790.567 120.14 790.506 119.997C790.445 119.854 790.413 119.7 790.411 119.544C790.41 119.426 790.425 119.309 790.457 119.195Z" fill="white"/>
<path d="M1078.52 109.685L967.62 76.5934C967.379 76.5194 967.167 76.3691 967.016 76.1646C966.866 75.96 966.785 75.7122 966.785 75.4577V61.3749C966.785 61.0592 966.909 60.7564 967.131 60.5331C967.353 60.3099 967.654 60.1845 967.967 60.1845H1074C1074.31 60.1842 1074.61 60.0586 1074.84 59.8353L1086.66 47.9356C1086.88 47.7111 1087 47.4091 1087 47.0943V31.127C1087 30.8124 1086.88 30.5107 1086.66 30.2882C1086.43 30.0658 1086.13 29.9408 1085.82 29.9408H948.552C945.413 29.9408 942.403 31.1963 940.184 33.4311C937.964 35.6659 936.718 38.6969 936.718 41.8574V90.0159C936.717 92.5898 937.544 95.0948 939.073 97.1569C940.603 99.219 942.754 100.727 945.206 101.457L1056.09 134.553C1056.34 134.626 1056.55 134.777 1056.7 134.983C1056.85 135.188 1056.93 135.437 1056.93 135.693V149.792C1056.93 149.948 1056.9 150.102 1056.84 150.246C1056.78 150.39 1056.7 150.521 1056.59 150.632C1056.48 150.743 1056.35 150.831 1056.21 150.891C1056.07 150.951 1055.91 150.982 1055.76 150.983L950.001 151.042C949.846 151.04 949.692 151.07 949.549 151.129C949.405 151.188 949.275 151.276 949.166 151.387L937.052 163.585C936.83 163.808 936.705 164.111 936.705 164.426V180.057C936.705 180.373 936.83 180.676 937.051 180.899C937.273 181.122 937.574 181.247 937.887 181.247H1075.14C1078.28 181.247 1081.29 179.991 1083.52 177.754C1085.74 175.517 1086.99 172.482 1086.99 169.318V121.118C1086.99 118.548 1086.16 116.047 1084.63 113.987C1083.11 111.927 1080.96 110.418 1078.52 109.685Z" fill="white"/>
<path d="M470.556 47.1616V31.127C470.555 30.8109 470.429 30.5081 470.207 30.285C469.985 30.0619 469.683 29.9366 469.37 29.9366H321.46C321.146 29.9366 320.845 30.0619 320.622 30.285C320.4 30.5081 320.274 30.8109 320.273 31.127V59.0067C320.273 59.3235 320.398 59.6273 320.621 59.8514C320.843 60.0754 321.145 60.2013 321.46 60.2013H379.201C379.515 60.2013 379.817 60.3271 380.04 60.5512C380.262 60.7752 380.387 61.0791 380.387 61.3959V180.053C380.387 180.369 380.512 180.672 380.733 180.896C380.955 181.12 381.255 181.246 381.569 181.247H409.256C409.57 181.247 409.872 181.122 410.094 180.897C410.317 180.673 410.442 180.37 410.442 180.053V61.3791C410.442 61.0622 410.567 60.7584 410.789 60.5343C411.012 60.3103 411.314 60.1845 411.628 60.1845H457.619C457.774 60.1848 457.928 60.1541 458.072 60.0942C458.215 60.0342 458.345 59.9463 458.455 59.8353L470.209 48.0029C470.429 47.7785 470.553 47.4768 470.556 47.1616Z" fill="white"/>
<path d="M714.387 42.7492C714.387 39.5492 713.125 36.4803 710.878 34.2173C708.631 31.9542 705.584 30.6823 702.406 30.6811H569.225C568.817 30.6823 568.426 30.8463 568.138 31.1372C567.85 31.4282 567.688 31.8224 567.688 32.2333V180.566C567.688 180.976 567.85 181.37 568.138 181.661C568.427 181.951 568.817 182.114 569.225 182.114H596.227C596.634 182.114 597.025 181.951 597.313 181.661C597.602 181.37 597.764 180.976 597.764 180.566V141.8C597.763 141.466 597.87 141.14 598.069 140.873C598.268 140.605 598.548 140.409 598.867 140.315L649.097 125.349C649.415 125.255 649.754 125.266 650.065 125.382C650.376 125.497 650.641 125.71 650.822 125.989L686.575 181.428C686.715 181.644 686.907 181.821 687.132 181.944C687.357 182.067 687.609 182.131 687.866 182.131H712.849C713.257 182.131 713.648 181.968 713.936 181.677C714.225 181.387 714.387 180.993 714.387 180.583V169.385C714.385 169.087 714.298 168.795 714.136 168.544L681.395 117.778C681.265 117.577 681.183 117.348 681.155 117.109C681.128 116.871 681.156 116.629 681.237 116.403C681.318 116.177 681.45 115.973 681.622 115.808C681.795 115.642 682.003 115.518 682.231 115.447L705.79 108.419C708.268 107.681 710.443 106.156 711.989 104.071C713.535 101.986 714.371 99.4534 714.37 96.8512L714.387 42.7492ZM599.301 60.9921H682.769C682.972 60.9915 683.172 61.0312 683.359 61.1087C683.546 61.1863 683.716 61.3002 683.859 61.444C684.002 61.5878 684.116 61.7586 684.193 61.9467C684.271 62.1348 684.311 62.3364 684.311 62.54V82.108C684.31 82.4418 684.202 82.7664 684.003 83.0338C683.804 83.3012 683.526 83.4972 683.208 83.5928L599.74 108.49C599.51 108.559 599.268 108.573 599.032 108.531C598.796 108.488 598.573 108.391 598.382 108.247C598.19 108.103 598.034 107.916 597.927 107.7C597.819 107.484 597.764 107.246 597.764 107.005V62.519C597.769 62.1121 597.934 61.7238 598.221 61.438C598.509 61.1522 598.897 60.9921 599.301 60.9921Z" fill="white"/>
</svg>
